# xmcd CD database file
#
# Track frame offsets:
#	150
#	17265
#	35195
#	55167
#	73535
#	95547
#	113870
#	136357
#	152032
#	173052
#	188625
#	204565
#	220507
#	238995
#	254462
#
# Disc length: 3643 seconds
#
# Revision: 1
# Processed by: cddbd v1.5.1PL0 Copyright (c) Steve Scherf et al.
# Submitted via: CDex 1.51
#
DISCID=d00e390f
DTITLE=本田 美奈子 - Twin Best
DYEAR=1998
DGENRE=Pop
TTITLE0=Temptation(誘惑)
TTITLE1=1986年のマリリン
TTITLE2=Oneway Generation
TTITLE3=HELP
TTITLE4=孤独なハリケーン
TTITLE5=殺意のバカンス
TTITLE6=The Cross(愛の十字架)
TTITLE7=Sosotte
TTITLE8=HARD TO SAY "I LOVE YOU"
TTITLE9=好きと言いなさい
TTITLE10=キャンセル
TTITLE11=HEARTBREAK
TTITLE12=CRAZY NIGHTS
TTITLE13=悲しみのSWING
TTITLE14=If・・・
EXTD=YEAR: 1998
EXTT0=
EXTT1=
EXTT2=
EXTT3=
EXTT4=
EXTT5=
EXTT6=
EXTT7=
EXTT8=
EXTT9=
EXTT10=
EXTT11=
EXTT12=
EXTT13=
EXTT14=
PLAYORDER=
